<svg width="16" height="16" viewBox="0 0 16 16" fill="none" xmlns="http://www.w3.org/2000/svg">
    <g clip-path="url(#clip0_590_37527)">
    <path fill="white" stroke="#3777bc" d="M9.86667 1H2.4C2.0287 1 1.6726 1.1475 1.41005 1.41005C1.1475 1.6726 1 2.0287 1 2.4V7.06667C1 7.43797 1.1475 7.79407 1.41005 8.05662C1.6726 8.31917 2.0287 8.46667 2.4 8.46667H3.8V11.2667L6.6 8.46667H9.86667C10.238 8.46667 10.5941 8.31917 10.8566 8.05662C11.1192 7.79407 11.2667 7.43797 11.2667 7.06667V2.4C11.2667 2.0287 11.1192 1.6726 10.8566 1.41005C10.5941 1.1475 10.238 1 9.86667 1Z" stroke-width="1.4" stroke-linecap="round" stroke-linejoin="round"/>
    <path fill="white" stroke="#3777bc" d="M6.59961 12.2H9.39961L12.1996 15V12.2H13.5996C13.9709 12.2 14.327 12.0525 14.5896 11.79C14.8521 11.5274 14.9996 11.1713 14.9996 10.8V6.13334C14.9996 5.76203 14.8521 5.40594 14.5896 5.14339C14.327 4.88084 13.9709 4.73334 13.5996 4.73334H13.1329" stroke-width="1.4" stroke-linecap="round" stroke-linejoin="round"/>
    </g>
    <defs>
    <clipPath id="clip0_590_37527">
    <rect width="16" height="16" fill="white"/>
    </clipPath>
    </defs>
</svg>