<svg width="32" height="32" viewBox="5 5 30 30" fill="none" xmlns="http://www.w3.org/2000/svg">
    <path fill-rule="evenodd" clip-rule="evenodd" d="M27.5 17.8703L20 12.8704L12.5 17.8703V27.3657H16.6667V20.3652C16.6667 20.0891 16.8905 19.8652 17.1667 19.8652H22.8333C23.1095 19.8652 23.3333 20.0891 23.3333 20.3652V27.3657H27.5V17.8703ZM10.7422 16.0376C10.2785 16.3467 10 16.8671 10 17.4244V28.199C10 29.1195 10.7462 29.8657 11.6667 29.8657H28.3333C29.2538 29.8657 30 29.1195 30 28.199V17.4244C30 16.8671 29.7215 16.3467 29.2578 16.0376L20.9245 10.4821C20.3647 10.1088 19.6353 10.1088 19.0755 10.4821L15 13.1991V12.0319C15 11.7558 14.7761 11.5319 14.5 11.5319H12.1667C11.8905 11.5319 11.6667 11.7558 11.6667 12.0319V15.4213L10.7422 16.0376ZM19.1667 27.3652V22.3652H20.8333V27.3652H19.1667Z" fill="#3777BC"/>
</svg>