<svg width="16" height="16" viewBox="0 0 16 16" fill="none" xmlns="http://www.w3.org/2000/svg">
    <g clip-path="url(#clip0_590_37531)">
    <path d="M4.73359 4.26667C4.73359 3.49347 4.10679 2.86667 3.33359 2.86667C2.5604 2.86667 1.93359 3.49347 1.93359 4.26667C1.93359 5.03987 2.5604 5.66667 3.33359 5.66667C4.10679 5.66667 4.73359 5.03987 4.73359 4.26667Z" stroke="#3777bc" stroke-width="1.4" stroke-linecap="round" stroke-linejoin="round"/>
    <path d="M3.8 14.0667H1.93333V11.2667H1V8.46666C1 8.21912 1.09833 7.98173 1.27337 7.80669C1.4484 7.63166 1.6858 7.53333 1.93333 7.53333H2.86667" stroke="#3777bc" stroke-width="1.4" stroke-linecap="round" stroke-linejoin="round"/>
    <path d="M11.2664 4.26666C11.2664 5.03986 11.8932 5.66666 12.6664 5.66666C13.4396 5.66666 14.0664 5.03986 14.0664 4.26666C14.0664 3.49346 13.4396 2.86666 12.6664 2.86666C11.8932 2.86666 11.2664 3.49346 11.2664 4.26666Z" stroke="#3777bc" stroke-width="1.4" stroke-linecap="round" stroke-linejoin="round"/>
    <path d="M12.2002 14.0667H14.0669V11.2667H15.0002V8.46666C15.0002 8.21912 14.9019 7.98173 14.7268 7.80669C14.5518 7.63166 14.3144 7.53333 14.0669 7.53333H13.1335" stroke="#3777bc" stroke-width="1.4" stroke-linecap="round" stroke-linejoin="round"/>
    <path d="M9.86712 2.86667C9.86712 1.83574 9.03139 1 8.00046 1C6.96952 1 6.13379 1.83574 6.13379 2.86667C6.13379 3.8976 6.96952 4.73333 8.00046 4.73333C9.03139 4.73333 9.86712 3.8976 9.86712 2.86667Z" stroke="#3777bc" stroke-width="1.4" stroke-linecap="round" stroke-linejoin="round"/>
    <path d="M10.3334 15H5.66673V11.2667H4.7334V8.46667C4.7334 7.9716 4.93006 7.49681 5.28013 7.14674C5.6302 6.79667 6.10499 6.60001 6.60007 6.60001H9.40007C9.89514 6.60001 10.3699 6.79667 10.72 7.14674C11.0701 7.49681 11.2667 7.9716 11.2667 8.46667V11.2667H10.3334V15Z" stroke="#3777bc" stroke-width="1.4" stroke-linecap="round" stroke-linejoin="round"/>
    </g>
    <defs>
    <clipPath id="clip0_590_37531">
    <rect width="16" height="16" fill="white"/>
    </clipPath>
    </defs>
</svg>