<svg id="Layer_1" data-name="Layer 1" xmlns="http://www.w3.org/2000/svg" viewBox="0 0 78 78" height="41" width="41">
    <circle cx="39" cy="39" r="37.94" fill="#fff"/>
    <path d="M74.85,47.05a36.84,36.84,0,0,0-24.47-43,36.26,36.26,0,0,0-7.9-1.62,36.84,36.84,0,0,0-37.19,22c-.45,1.05-.87,2.12-1.23,3.23A36.75,36.75,0,0,0,74,50.37a33.26,33.26,0,0,0,.89-3.32"
          fill="#fff"/>
    <path d="M46.52,15.86a63.39,63.39,0,0,1-4-13.43,36.77,36.77,0,0,0-27.73,9A64.89,64.89,0,0,1,19.32,24.7a64.36,64.36,0,0,0,27.2-8.84"
          fill="#0081a5"/>
    <path d="M19.32,24.7a62.87,62.87,0,0,1-14-.31c-.45,1.05-.87,2.12-1.23,3.23A36.52,36.52,0,0,0,5.3,53.55a64.56,64.56,0,0,1,14-.25,64.51,64.51,0,0,0,0-28.6"
          fill="#f15c22"/>
    <path d="M14.75,11.43a36.64,36.64,0,0,0-9.46,13,62.86,62.86,0,0,0,14,.31,64.89,64.89,0,0,0-4.57-13.27"
          fill="#483829"/>
    <path d="M46.53,62.13a64.5,64.5,0,0,0-27.2-8.83A64.27,64.27,0,0,1,14.7,66.56a36.67,36.67,0,0,0,27.72,9,64.66,64.66,0,0,1,4.11-13.46"
          fill="#c4c4c4"/>
    <path d="M19.33,53.3a64.56,64.56,0,0,0-14,.25,36.8,36.8,0,0,0,9.4,13A64.27,64.27,0,0,0,19.33,53.3" fill="#d6450d"/>
    <path d="M46.53,62.13a63.74,63.74,0,0,1,11.15,8.48A36.58,36.58,0,0,0,74,50.37a33.26,33.26,0,0,0,.89-3.32A63.75,63.75,0,0,1,63.34,39,64.39,64.39,0,0,0,46.53,62.13"
          fill="#fdb813"/>
    <path d="M42.42,75.59a36.86,36.86,0,0,0,15.26-5,63.74,63.74,0,0,0-11.15-8.48,64.66,64.66,0,0,0-4.11,13.46"
          fill="#e39400"/>
    <path d="M63.34,39a63.07,63.07,0,0,1,11.51-8A36.76,36.76,0,0,0,57.74,7.4a64.35,64.35,0,0,1-11.22,8.46A64.26,64.26,0,0,0,63.34,39"
          fill="#78a22f"/>
    <path d="M57.74,7.4a36.43,36.43,0,0,0-7.36-3.35,36.86,36.86,0,0,0-7.9-1.62,63.39,63.39,0,0,0,4,13.43A64.35,64.35,0,0,0,57.74,7.4"
          fill="#00703c"/>
    <path d="M63.34,39a63.75,63.75,0,0,0,11.51,8.06,36.47,36.47,0,0,0,0-16,63.07,63.07,0,0,0-11.51,8" fill="#695c21"/>
</svg>