<svg width="16" height="16" viewBox="0 0 16 16" fill="none" xmlns="http://www.w3.org/2000/svg">
    <path fill-rule="evenodd" clip-rule="evenodd" d="M2.07836 13.2756C1.91115 13.6081 2.15287 14.0002 2.52506 14.0002H13.5127C13.8855 14.0002 14.1271 13.607 13.9588 13.2744L8.44713 2.38456C8.26182 2.01841 7.73867 2.0191 7.55432 2.38573L2.07836 13.2756ZM8.00392 4.83052L4.14722 12.5002H11.8858L8.00392 4.83052ZM7.99957 7C8.41379 7 8.74957 7.33579 8.74957 7.75V9.25C8.74957 9.66421 8.41379 10 7.99957 10C7.58536 10 7.24957 9.66421 7.24957 9.25V7.75C7.24957 7.33579 7.58536 7 7.99957 7ZM7.99957 12C8.41379 12 8.74957 11.6642 8.74957 11.25C8.74957 10.8358 8.41379 10.5 7.99957 10.5C7.58536 10.5 7.24957 10.8358 7.24957 11.25C7.24957 11.6642 7.58536 12 7.99957 12Z" fill="#3777bc"/>
</svg>