<svg width="13" height="13" viewBox="0 0 13 13" fill="none" xmlns="http://www.w3.org/2000/svg">
    <path fill-rule="evenodd" clip-rule="evenodd" d="M10.6971 0.325483C12.1465 -0.0526331 13.3701 1.44643 12.7094 2.79074L8.57536 11.2018C7.85018 12.6773 5.67486 12.4291 5.30073 10.8282L4.69366 8.23053C4.55189 7.62389 4.74331 6.98763 5.19627 6.55991L8.48477 3.45466C8.78593 3.17028 9.26061 3.18389 9.54499 3.48505C9.82937 3.78622 9.81577 4.2609 9.51461 4.54528L6.22611 7.65052C6.1614 7.71162 6.13405 7.80252 6.15431 7.88918L6.76137 10.4868C6.81482 10.7155 7.12558 10.751 7.22918 10.5402L11.3632 2.12909C11.4576 1.93704 11.2828 1.72289 11.0758 1.77691L2.08549 4.12227C1.85319 4.18287 1.83155 4.50424 2.05364 4.59544L1.76876 5.28922L2.05364 4.59544L3.78457 5.30618C4.16774 5.46352 4.35081 5.90168 4.19348 6.28485C4.03614 6.66802 3.59798 6.85109 3.21481 6.69376L1.48388 5.98301C-0.0707642 5.34465 0.0806652 3.09508 1.70685 2.67085L10.6971 0.325483Z" fill="white"/>
    </svg>